<svg width="23" height="24" viewBox="0 0 23 24" fill="none" xmlns="http://www.w3.org/2000/svg">
<path fill-rule="evenodd" clip-rule="evenodd" d="M14.1884 0.113889C14.023 0.253071 13.7309 1.1042 13.7309 1.44719C13.7309 1.72626 13.8533 1.82626 14.4436 2.02977C16.693 2.80495 19.0394 4.98717 20.1171 7.30627C20.8486 8.88026 21.1431 10.2314 21.1431 12.013C21.1431 13.7946 20.8486 15.1458 20.1171 16.7198C19.0394 19.0389 16.693 21.2211 14.4436 21.9963C13.6494 22.27 13.6103 22.3639 13.8944 23.3143C14.1157 24.0547 14.3014 24.1367 15.082 23.8386C18.4828 22.5396 21.2884 19.5357 22.412 15.9903C22.8667 14.5556 22.9937 13.6877 22.9937 12.013C22.9937 10.9106 22.9452 10.2217 22.8268 9.639C21.9344 5.2479 19.1273 1.79279 15.1791 0.225716C14.493 -0.0466364 14.3927 -0.0579594 14.1884 0.113889ZM9.00521 4.52283L6.59929 7.05296L4.29704 7.10306C0.804199 7.10306 0.997089 6.84724 0.997089 12.013C0.997089 17.1788 0.756685 16.923 4.29704 16.923L6.59929 16.9731L9.00521 19.5032C10.9464 21.5445 11.4603 22.0333 11.665 22.0333C11.8185 22.0333 11.9575 21.9569 12.017 21.8395C12.1537 21.5703 12.1537 2.45574 12.017 2.18649C11.9575 2.06915 11.8185 1.9927 11.665 1.9927C11.4603 1.9927 10.9464 2.48149 9.00521 4.52283ZM14.2289 5.12405C13.9858 5.4432 13.632 6.3315 13.682 6.49733C13.7124 6.59834 14.0459 6.85085 14.4231 7.05847C15.7826 7.80679 17.0285 9.41365 17.3344 10.8134C17.4602 11.3891 17.4602 12.637 17.3344 13.2126C17.0306 14.6026 15.8065 16.1798 14.4214 16.9657C14.0434 17.1802 13.7093 17.438 13.679 17.5387C13.6466 17.6462 13.7537 17.9803 13.9387 18.3494C14.3472 19.1639 14.486 19.182 15.5154 18.5547C17.3352 17.4458 18.6921 15.606 19.1576 13.6163C19.3233 12.9082 19.3237 11.1203 19.1583 10.4098C18.6642 8.28606 17.1298 6.29933 15.1832 5.26283C14.6374 4.97214 14.3738 4.93376 14.2289 5.12405Z" fill="#3231F1"/>
</svg>
