<svg width="19" height="22" viewBox="0 0 19 22" fill="none" xmlns="http://www.w3.org/2000/svg">
<path d="M19 19.4675V2.53233C19 1.36389 18.0419 0.53123 17 0.529249C16.6556 0.528595 16.3021 0.618668 15.971 0.817335L5 7.39992V2.51465C5 1.4158 4.11348 0.522754 3.01465 0.514703C1.90439 0.506568 1 1.40435 1 2.51465V19.4706C1 20.5752 1.89543 21.4706 3 21.4706C4.10457 21.4706 5 20.5752 5 19.4706V14.5999L15.971 21.1825C16.3021 21.3812 16.6556 21.4713 17 21.4706C18.0419 21.4686 19 20.6359 19 19.4675Z" fill="#0A0A0A"/>
</svg>
