<svg width="19" height="22" viewBox="0 0 19 22" fill="none" xmlns="http://www.w3.org/2000/svg">
<path d="M19 19.4676V2.53239C19 1.36395 18.0419 0.531289 17 0.529308C16.6556 0.528654 16.3021 0.618727 15.971 0.817394L5 7.39998V2.51471C5 1.41586 4.11348 0.522813 3.01465 0.514762V0.514762C1.90439 0.506627 1 1.40441 1 2.51471V19.4707C1 20.5753 1.89543 21.4707 3 21.4707V21.4707C4.10457 21.4707 5 20.5753 5 19.4707V14.6L15.971 21.1826C16.3021 21.3813 16.6556 21.4714 17 21.4707C18.0419 21.4687 19 20.636 19 19.4676Z" fill="#3231F1"/>
</svg>
