<svg width="23" height="24" viewBox="0 0 23 24" fill="none" xmlns="http://www.w3.org/2000/svg">
<path fill-rule="evenodd" clip-rule="evenodd" d="M9.00521 4.52329L6.59929 7.05342L4.29704 7.10352C0.804199 7.10352 0.997089 6.8477 0.997089 12.0135C0.997089 17.1793 0.756685 16.9235 4.29704 16.9235L6.59929 16.9736L9.00521 19.5037C10.9464 21.545 11.4603 22.0338 11.665 22.0338C11.8185 22.0338 11.9575 21.9574 12.017 21.84C12.1537 21.5708 12.1537 2.4562 12.017 2.18695C11.9575 2.06961 11.8185 1.99316 11.665 1.99316C11.4603 1.99316 10.9464 2.48195 9.00521 4.52329Z" fill="#3231F1"/>
<path d="M17.5116 10.8136L16.5151 9.11306C16.3833 8.88817 16.1422 8.75 15.8816 8.75C15.3023 8.75 14.9511 9.38926 15.2618 9.87813L16.6982 12.1387C16.7501 12.2205 16.7501 12.325 16.6982 12.4068L15.2648 14.6626C14.9529 15.1535 15.3055 15.7955 15.8872 15.7955C16.1429 15.7955 16.3803 15.663 16.5147 15.4455L17.5146 13.826C17.6122 13.6678 17.8423 13.6678 17.94 13.826L18.9409 15.447C19.0746 15.6636 19.311 15.7955 19.5655 15.7955C20.1471 15.7955 20.4977 15.1515 20.1822 14.663L18.7261 12.4084C18.6728 12.3258 18.6728 12.2197 18.7261 12.1371L20.1853 9.87772C20.4995 9.39125 20.1503 8.75 19.5711 8.75C19.3116 8.75 19.0716 8.88757 18.9404 9.11147L17.943 10.8136C17.8464 10.9784 17.6082 10.9784 17.5116 10.8136Z" fill="#3231F1" stroke="#3231F1" stroke-width="0.5"/>
</svg>
