<svg width="19" height="22" viewBox="0 0 19 22" fill="none" xmlns="http://www.w3.org/2000/svg">
<path d="M0 2.53239V19.4676C0 20.636 0.958051 21.4687 2 21.4707C2.34435 21.4713 2.69787 21.3813 3.02899 21.1826L14 14.6V19.4853C14 20.5841 14.8865 21.4772 15.9853 21.4852V21.4852C17.0956 21.4934 18 20.5956 18 19.4853V2.5293C18 1.42473 17.1046 0.5293 16 0.5293V0.5293C14.8954 0.5293 14 1.42473 14 2.5293V7.4L3.02899 0.8174C2.69787 0.618726 2.34435 0.528648 2 0.5293C0.958051 0.531276 0 1.36395 0 2.53239Z" fill="#3231F1"/>
</svg>
