<svg width="33" height="33" viewBox="0 0 33 33" fill="none" xmlns="http://www.w3.org/2000/svg">
<path d="M15.4165 1.29452C15.7074 0.417451 16.8906 0.417452 17.1815 1.29452L20.4785 11.2381C20.6069 11.625 20.9514 11.8873 21.342 11.8957L31.3821 12.1101C32.2677 12.1291 32.6333 13.3087 31.9275 13.8697L23.9252 20.2296C23.6137 20.4771 23.4822 20.9016 23.5954 21.2936L26.5033 31.3698C26.7597 32.2585 25.8025 32.9875 25.0754 32.4572L16.8325 26.4444C16.5119 26.2103 16.0861 26.2103 15.7654 26.4444L7.52244 32.4572C6.79538 32.9875 5.83812 32.2585 6.09461 31.3698L9.00259 21.2936C9.11575 20.9016 8.98419 20.4771 8.67281 20.2296L0.670432 13.8697C-0.0354152 13.3087 0.330228 12.1291 1.21582 12.1101L11.2559 11.8957C11.6466 11.8873 11.9911 11.625 12.1194 11.2381L15.4165 1.29452Z" fill="#3231F1"/>
</svg>
